:SAMPLES-PER-SECOND 30
:FRAME-RANGE 1-1390
:FULLY-SPECIFIED
:DEGREES
478
root  -25.3541 34.3761 42.3401 169.512 -12.6893 176.621
RightUpLeg  -79.1343 -14.6336 57.6401
RightLeg  125.098 8.8445 -10.8863
RightFoot  -33.6089 -0.288785 -0.303883
RightToes  6.35937e-011 1.2921e-014 -6.02303e-014
Spine  18.6605 -1.46154 1.25105
Spine1  -3.50272 1.22788 -5.57171
HEad  6.07322 -5.29086 2.74014
LeftShoulder1  2.89005 -8.49069 -18.1686
LeftArm  34.7286 -24.7294 -67.5373
LeftForeArm  37.2487 -0.840025 -17.8945
LeftHand  0.0148901 8.29263 2.26404
RightShoulder  2.37029 6.32508 18.1726
RightArm  6.32627 35.0816 92.2833
RightForeArm  122.023 -4.05724 10.3158
RightHand  1.52467 -19.2654 -13.048
LeftUpLeg  -22.4883 -17.5805 -12.944
LeftLeg  53.0688 6.16359 9.22464
LeftFoot  -17.6398 0.25111 2.63835
LeftToes  4.52251e-011 4.07896e-011 -5.42348e-012
479
root  -25.6063 34.4011 41.3912 169.118 -10.6341 177.212
RightUpLeg  -80.9458 -15.295 60.0282
RightLeg  123.955 7.38912 -9.42962
RightFoot  -32.8667 -0.175026 0.256607
RightToes  6.35937e-011 1.2921e-014 -6.02303e-014
Spine  17.5918 -1.55531 0.763979
Spine1  -3.72613 0.999684 -4.49563
HEad  6.67998 -3.79981 3.94296
LeftShoulder1  2.84319 -8.5623 -17.5803
LeftArm  40.7373 -24.9051 -67.6268
LeftForeArm  32.6118 -2.42967 -18.0197
LeftHand  0.0059126 8.3611 1.89745
RightShoulder  2.40098 6.31767 18.5394
RightArm  5.05431 35.4277 91.5518
RightForeArm  120.36 -4.02985 9.66378
RightHand  1.38476 -18.8755 -12.2659
LeftUpLeg  -20.9788 -14.3272 -12.3776
LeftLeg  54.0759 5.58953 8.73909
LeftFoot  -20.0285 0.344161 2.94657
LeftToes  4.52251e-011 4.07896e-011 -5.42348e-012
480
root  -25.7507 34.944 40.4886 169.007 -9.56308 178.321
RightUpLeg  -83.5459 -15.7546 62.3878
RightLeg  122.523 6.0245 -8.02787
RightFoot  -32.8804 -0.160195 0.334933
RightToes  6.35937e-011 1.2921e-014 -6.02303e-014
Spine  16.2414 -1.72984 0.900911
Spine1  -3.72538 0.838166 -3.79345
HEad  7.52262 -3.37599 5.18947
LeftShoulder1  2.90448 -8.74226 -17.7436
LeftArm  45.7683 -25.5089 -67.541
LeftForeArm  29.3348 -3.74537 -17.9914
LeftHand  0.00425945 8.48855 1.78853
RightShoulder  2.42693 6.47395 18.3966
RightArm  5.23877 35.9794 89.751
RightForeArm  118.113 -4.20011 10.0974
RightHand  1.40849 -18.8388 -12.4924
LeftUpLeg  -18.2784 -13.1528 -11.2362
LeftLeg  52.086 5.85482 8.49323
LeftFoot  -20.4379 0.347967 2.83043
LeftToes  4.52251e-011 4.07896e-011 -5.42348e-012
481
root  -25.8279 35.8532 39.6449 168.789 -8.26652 179.665
RightUpLeg  -85.3778 -15.6681 64.2608
RightLeg  121.199 5.45987 -7.60769
RightFoot  -33.1996 -0.0367046 0.981164
RightToes  6.35937e-011 1.2921e-014 -6.02303e-014
Spine  15.1034 -1.8154 1.85148
Spine1  -3.71528 0.963396 -4.07218
HEad  9.44834 -3.47859 6.42537
LeftShoulder1  2.96966 -8.9432 -17.8913
LeftArm  45.1104 -26.5639 -67.9306
LeftForeArm  32.036 -3.51321 -17.9207
LeftHand  0.00750682 8.93344 1.74749
RightShoulder  2.35175 6.12931 18.5111
RightArm  4.23749 35.8893 88.673
RightForeArm  117.013 -4.19755 9.75986
RightHand  1.44755 -18.499 -13.1297
LeftUpLeg  -14.4621 -12.7402 -9.6966
LeftLeg  47.8086 6.70584 8.30465
LeftFoot  -19.1904 0.257566 2.07478
LeftToes  4.52251e-011 4.07896e-011 -5.42348e-012
482
root  -25.8388 36.9067 38.8942 168.516 -6.67695 -179.072
RightUpLeg  -86.2603 -14.9036 64.8984
RightLeg  120.705 5.13181 -7.25668
RightFoot  -33.0237 -0.0175064 1.08316
RightToes  6.35937e-011 1.2921e-014 -6.02303e-014
Spine  14.3053 -2.01763 2.36284
Spine1  -3.71283 0.836474 -4.18551
HEad  12.081 -2.96299 6.91081
LeftShoulder1  3.0077 -9.21557 -17.6481
LeftArm  43.5985 -27.0467 -68.0088
LeftForeArm  33.3078 -3.07417 -17.9284
LeftHand  0.0123218 8.82397 1.9362
RightShoulder  2.31851 6.15433 18.0583
RightArm  4.66018 36.3201 88.8217
RightForeArm  114.825 -4.3227 9.91447
RightHand  1.5278 -18.3401 -13.9657
LeftUpLeg  -11.2344 -12.6522 -7.89027
LeftLeg  43.9871 6.91943 7.51701
LeftFoot  -15.4573 0.0785998 -0.392895
LeftToes  4.52251e-011 4.07896e-011 -5.42348e-012
483
root  -25.8219 37.8435 38.3246 168.423 -6.00104 -178.646
RightUpLeg  -87.2937 -13.9818 63.8778
RightLeg  120.818 4.75355 -6.64801
RightFoot  -33.0871 0.0778645 1.57886
RightToes  6.35937e-011 1.2921e-014 -6.02303e-014
Spine  14.5927 -2.43233 1.09702
Spine1  -4.27424 0.148805 -3.21726
HEad  14.3645 -2.06864 6.46815
LeftShoulder1  3.06114 -9.61015 -17.2993
LeftArm  41.0819 -26.8885 -67.8421
LeftForeArm  34.1557 -2.32915 -17.9672
LeftHand  0.0154611 8.95426 1.98649
RightShoulder  2.25407 5.98429 17.7894
RightArm  5.29471 36.5106 89.2549
RightForeArm  112.08 -4.48753 10.152
RightHand  1.53727 -18.342 -14.0441
LeftUpLeg  -10.6506 -13.4991 -7.18342
LeftLeg  43.4361 6.89238 7.3521
LeftFoot  -8.40489 0.15013 -3.89026
LeftToes  4.52251e-011 4.07896e-011 -5.42348e-012
